<svg width="45" height="40" viewBox="0 0 45 40" fill="none" xmlns="http://www.w3.org/2000/svg">
<path d="M10.6931 40C7.12871 40 4.45545 38.8674 2.67327 36.6023C0.891089 34.2342 0 31.3514 0 27.9537C0 23.2175 1.23762 18.2239 3.71287 12.973C5.76359 8.53729 8.1881 4.80833 10.9864 1.78608C11.9783 0.714751 13.6189 0.648749 14.7779 1.53676L15.9448 2.43092C17.2945 3.4651 17.5058 5.40786 16.5028 6.78091C13.1457 11.3767 11.1136 15.8765 10.4063 20.28C10.3095 20.8831 10.8299 21.3915 11.4356 21.3127V21.3127C13.9109 21.3127 15.9901 22.1364 17.6733 23.7838C19.3564 25.4311 20.198 27.4903 20.198 29.9614C20.198 32.7413 19.3564 35.1094 17.6733 37.0656C15.9901 39.0219 13.6634 40 10.6931 40ZM35.495 40C31.9307 40 29.2574 38.8674 27.4752 36.6023C25.6931 34.2342 24.802 31.3514 24.802 27.9537C24.802 23.2175 26.0396 18.2239 28.5149 12.973C30.5656 8.53729 32.9901 4.80833 35.7884 1.78608C36.7803 0.714751 38.4209 0.648749 39.5798 1.53676L40.7468 2.43092C42.0965 3.4651 42.3077 5.40786 41.3048 6.78091C37.9477 11.3767 35.9156 15.8765 35.2083 20.28C35.1115 20.8831 35.6319 21.3915 36.2376 21.3127V21.3127C38.7129 21.3127 40.7921 22.1364 42.4752 23.7838C44.1584 25.4311 45 27.4903 45 29.9614C45 32.7413 44.1584 35.1094 42.4752 37.0656C40.7921 39.0219 38.4653 40 35.495 40Z" fill="#D9AC3A" fill-opacity="0.4"/>
</svg>
